<svg width="375" height="127" viewBox="0 0 375 127" fill="none" xmlns="http://www.w3.org/2000/svg">
<path fill-rule="evenodd" clip-rule="evenodd" d="M231.486 -704.156C317.993 -686.057 347.892 -597.628 424.773 -561.621C492.861 -529.733 590.852 -550.092 649.628 -508.323C708.534 -466.462 748.252 -399.706 739.889 -337.683C731.286 -273.873 629.497 -240.938 605.312 -179.643C583.653 -124.752 636.145 -63.2481 610.38 -9.46008C583.269 47.1389 534.336 110.734 459.436 124.895C380.164 139.882 312.38 70.2123 231.486 62.1741C163.383 55.4069 96.7021 94.0388 29.7344 82.1964C-40.9267 69.7009 -102.675 34.9015 -153.179 -5.84882C-205.919 -48.4035 -238.773 -102.246 -267.084 -157.297C-298.587 -218.554 -341.68 -281.685 -328.594 -346.94C-315.425 -412.604 -248.11 -461.766 -195.57 -513.902C-142.875 -566.192 -92.6099 -621.502 -18.7375 -654.413C57.0398 -688.172 147.292 -721.771 231.486 -704.156Z" fill="#3FC494"/>
</svg>
