<svg width="375" height="783" viewBox="0 0 375 783" fill="none" xmlns="http://www.w3.org/2000/svg">
<path fill-rule="evenodd" clip-rule="evenodd" d="M262.486 7.99998C348.993 25.2548 378.892 92.1767 455.773 126.503C523.861 156.904 621.852 137.495 680.628 177.315C739.534 217.224 779.252 280.865 770.889 339.995C762.286 400.828 660.497 432.227 636.312 490.662C614.653 542.993 667.145 601.627 641.38 652.906C614.269 706.864 565.336 767.493 490.436 780.993C411.164 795.281 343.38 728.861 262.486 721.198C194.383 714.747 127.702 751.576 60.7344 740.286C-9.92672 728.374 -71.6746 695.198 -122.179 656.349C-174.919 615.779 -207.773 564.448 -236.084 511.966C-267.587 453.566 -310.68 393.38 -297.594 331.169C-284.425 268.569 -217.11 221.7 -164.57 171.996C-111.875 122.146 -61.6099 69.4157 12.2625 38.0408C88.0398 5.8568 178.292 -8.79332 262.486 7.99998Z" fill="#3FC494"/>
</svg>
